STARTFONT 2.1
FONT -FontForge-Syncopate-Book-R-Normal--20-200-72-72-P-150-ISO10646-1
SIZE 20 72 72
FONTBOUNDINGBOX 36 24 -4 -5
COMMENT "Generated by fontforge, http://fontforge.sourceforge.net"
COMMENT "Copyright (c) 2010 by Brian J. Bonislawsky DBA Astigmatic (AOETI). All rights reserved. Available under the Apache 2.0 licence.http://www.apache.org/licenses/LICENSE-2.0.html"
STARTPROPERTIES 39
FOUNDRY "FontForge"
FAMILY_NAME "Syncopate"
WEIGHT_NAME "Book"
SLANT "R"
SETWIDTH_NAME "Normal"
ADD_STYLE_NAME ""
PIXEL_SIZE 20
POINT_SIZE 200
RESOLUTION_X 72
RESOLUTION_Y 72
SPACING "P"
AVERAGE_WIDTH 150
CHARSET_REGISTRY "ISO10646"
CHARSET_ENCODING "1"
FONTNAME_REGISTRY ""
CHARSET_COLLECTIONS "ISO8859-2 ISO8859-9 ISO8859-4 ISO10646-1"
FONT_NAME "Syncopate-Regular"
FACE_NAME "Syncopate Regular"
COPYRIGHT "Copyright (c) 2010 by Brian J. Bonislawsky DBA Astigmatic (AOETI). All rights reserved. Available under the Apache 2.0 licence.http://www.apache.org/licenses/LICENSE-2.0.html"
FONT_VERSION "001.001"
FONT_ASCENT 16
FONT_DESCENT 4
UNDERLINE_POSITION -2
UNDERLINE_THICKNESS 1
X_HEIGHT 13
CAP_HEIGHT 13
RAW_ASCENT 799
RAW_DESCENT 200
NORM_SPACE 8
RELATIVE_WEIGHT 40
RELATIVE_SETWIDTH 70
SUPERSCRIPT_X 0
SUPERSCRIPT_Y 5
SUPERSCRIPT_SIZE 4
SUBSCRIPT_X 0
SUBSCRIPT_Y 5
SUBSCRIPT_SIZE 4
AVG_LOWERCASE_WIDTH 172
AVG_UPPERCASE_WIDTH 164
ENDPROPERTIES
CHARS 370
STARTCHAR space
ENCODING 32
SWIDTH 375 0
DWIDTH 8 0
BBX 1 1 0 0
BITMAP
00
ENDCHAR
STARTCHAR exclam
ENCODING 33
SWIDTH 274 0
DWIDTH 6 0
BBX 1 14 2 0
BITMAP
80
80
80
80
80
80
80
80
80
80
00
00
80
80
ENDCHAR
STARTCHAR quotedbl
ENCODING 34
SWIDTH 290 0
DWIDTH 6 0
BBX 4 4 1 10
BITMAP
90
90
90
90
ENDCHAR
STARTCHAR numbersign
ENCODING 35
SWIDTH 701 0
DWIDTH 14 0
BBX 13 14 1 0
BITMAP
0420
0420
0840
0840
3FF8
0840
0840
1080
1080
FFE0
1080
1080
2100
2100
ENDCHAR
STARTCHAR dollar
ENCODING 36
SWIDTH 767 0
DWIDTH 15 0
BBX 12 16 2 -1
BITMAP
0400
3F80
4460
8400
8400
8400
6400
1E00
05C0
0420
0410
0410
0410
8460
7F80
0400
ENDCHAR
STARTCHAR percent
ENCODING 37
SWIDTH 992 0
DWIDTH 20 0
BBX 17 14 1 0
BITMAP
3C0200
420400
810800
811000
812000
422000
3C4000
009E00
012100
014080
024080
044080
082100
101E00
ENDCHAR
STARTCHAR ampersand
ENCODING 38
SWIDTH 926 0
DWIDTH 19 0
BBX 15 14 2 0
BITMAP
0F00
1080
2040
2040
2180
1200
1C00
2404
4204
8188
8048
8030
6068
1F86
ENDCHAR
STARTCHAR quotesingle
ENCODING 39
SWIDTH 140 0
DWIDTH 3 0
BBX 1 4 1 10
BITMAP
80
80
80
80
ENDCHAR
STARTCHAR parenleft
ENCODING 40
SWIDTH 420 0
DWIDTH 8 0
BBX 5 16 2 -1
BITMAP
08
10
20
40
40
80
80
80
80
80
80
40
40
20
10
08
ENDCHAR
STARTCHAR parenright
ENCODING 41
SWIDTH 420 0
DWIDTH 8 0
BBX 5 16 2 -1
BITMAP
80
40
20
10
10
08
08
08
08
08
08
10
10
20
40
80
ENDCHAR
STARTCHAR asterisk
ENCODING 42
SWIDTH 503 0
DWIDTH 10 0
BBX 7 8 1 6
BITMAP
10
92
D6
38
38
D6
92
10
ENDCHAR
STARTCHAR plus
ENCODING 43
SWIDTH 634 0
DWIDTH 13 0
BBX 9 9 2 2
BITMAP
0800
0800
0800
0800
FF80
0800
0800
0800
0800
ENDCHAR
STARTCHAR comma
ENCODING 44
SWIDTH 185 0
DWIDTH 4 0
BBX 2 4 0 -2
BITMAP
40
40
80
80
ENDCHAR
STARTCHAR hyphen
ENCODING 45
SWIDTH 540 0
DWIDTH 11 0
BBX 8 1 2 6
BITMAP
FF
ENDCHAR
STARTCHAR period
ENCODING 46
SWIDTH 185 0
DWIDTH 4 0
BBX 1 2 1 0
BITMAP
80
80
ENDCHAR
STARTCHAR slash
ENCODING 47
SWIDTH 500 0
DWIDTH 10 0
BBX 8 14 1 0
BITMAP
01
02
02
04
04
08
08
10
10
20
20
40
40
80
ENDCHAR
STARTCHAR zero
ENCODING 48
SWIDTH 833 0
DWIDTH 17 0
BBX 14 14 1 0
BITMAP
0FC0
1020
2010
4008
8004
8004
8004
8004
8004
8004
4008
2010
1020
0FC0
ENDCHAR
STARTCHAR one
ENCODING 49
SWIDTH 339 0
DWIDTH 7 0
BBX 4 14 0 0
BITMAP
30
D0
10
10
10
10
10
10
10
10
10
10
10
10
ENDCHAR
STARTCHAR two
ENCODING 50
SWIDTH 728 0
DWIDTH 15 0
BBX 12 14 1 0
BITMAP
1F80
6040
8020
0010
0010
0010
0020
0040
0080
0300
0400
1800
6000
FFF0
ENDCHAR
STARTCHAR three
ENCODING 51
SWIDTH 726 0
DWIDTH 15 0
BBX 12 14 1 0
BITMAP
3F80
C060
0010
0010
0010
0060
0F80
00E0
0010
0010
0010
0010
8060
7F80
ENDCHAR
STARTCHAR four
ENCODING 52
SWIDTH 769 0
DWIDTH 15 0
BBX 14 14 0 0
BITMAP
0060
00A0
0120
0220
0420
0820
1020
2020
4020
FFFC
0020
0020
0020
0020
ENDCHAR
STARTCHAR five
ENCODING 53
SWIDTH 738 0
DWIDTH 15 0
BBX 12 14 1 0
BITMAP
7FE0
4000
4000
4000
4000
4000
7F80
4060
0010
0010
0010
0010
8060
7F80
ENDCHAR
STARTCHAR six
ENCODING 54
SWIDTH 772 0
DWIDTH 15 0
BBX 13 14 1 0
BITMAP
0FE0
1010
2000
4000
8000
8FC0
B020
C010
8008
8008
4008
4010
3020
0FC0
ENDCHAR
STARTCHAR seven
ENCODING 55
SWIDTH 669 0
DWIDTH 13 0
BBX 13 14 0 0
BITMAP
FFF8
0010
0010
0020
0020
0040
0080
0080
0100
0100
0200
0400
0400
0800
ENDCHAR
STARTCHAR eight
ENCODING 56
SWIDTH 793 0
DWIDTH 16 0
BBX 14 14 1 0
BITMAP
0FC0
3030
4008
4008
2010
1860
0780
3870
4008
8004
8004
8004
6018
1FE0
ENDCHAR
STARTCHAR nine
ENCODING 57
SWIDTH 776 0
DWIDTH 16 0
BBX 13 14 1 0
BITMAP
1F80
2060
4010
8010
8008
8008
4018
2068
1F88
0010
0010
0020
4040
3F80
ENDCHAR
STARTCHAR colon
ENCODING 58
SWIDTH 245 0
DWIDTH 5 0
BBX 1 9 2 0
BITMAP
80
80
00
00
00
00
00
80
80
ENDCHAR
STARTCHAR semicolon
ENCODING 59
SWIDTH 234 0
DWIDTH 5 0
BBX 2 11 1 -2
BITMAP
40
40
00
00
00
00
00
40
40
80
80
ENDCHAR
STARTCHAR less
ENCODING 60
SWIDTH 634 0
DWIDTH 13 0
BBX 10 9 2 2
BITMAP
0040
0380
0C00
7000
8000
7000
0C00
0380
0040
ENDCHAR
STARTCHAR equal
ENCODING 61
SWIDTH 634 0
DWIDTH 13 0
BBX 9 5 2 4
BITMAP
FF80
0000
0000
0000
FF80
ENDCHAR
STARTCHAR greater
ENCODING 62
SWIDTH 634 0
DWIDTH 13 0
BBX 10 9 2 2
BITMAP
8000
7000
0C00
0380
0040
0380
0C00
7000
8000
ENDCHAR
STARTCHAR question
ENCODING 63
SWIDTH 568 0
DWIDTH 11 0
BBX 9 14 1 0
BITMAP
7E00
8100
0080
0080
0080
0100
0200
3C00
2000
2000
0000
0000
2000
2000
ENDCHAR
STARTCHAR at
ENCODING 64
SWIDTH 1016 0
DWIDTH 20 0
BBX 17 14 2 0
BITMAP
03F000
0C0C00
300200
400100
43F080
843080
881080
881080
882100
846200
43DC00
200000
180C00
07F000
ENDCHAR
STARTCHAR A
ENCODING 65
SWIDTH 812 0
DWIDTH 16 0
BBX 15 14 1 0
BITMAP
0100
0280
0280
0440
0440
0820
0820
1010
1010
3FF8
2008
4004
4004
8002
ENDCHAR
STARTCHAR B
ENCODING 66
SWIDTH 836 0
DWIDTH 17 0
BBX 13 14 2 0
BITMAP
FFC0
8020
8010
8010
8010
8020
FFC0
8030
8008
8008
8008
8008
8010
FFE0
ENDCHAR
STARTCHAR C
ENCODING 67
SWIDTH 869 0
DWIDTH 17 0
BBX 15 14 1 0
BITMAP
07F0
180C
2002
4000
8000
8000
8000
8000
8000
8000
4000
2002
180C
07F0
ENDCHAR
STARTCHAR D
ENCODING 68
SWIDTH 910 0
DWIDTH 18 0
BBX 14 14 2 0
BITMAP
FFC0
8030
8008
8008
8004
8004
8004
8004
8004
8004
8008
8008
8030
FFC0
ENDCHAR
STARTCHAR E
ENCODING 69
SWIDTH 754 0
DWIDTH 15 0
BBX 11 14 2 0
BITMAP
FFE0
8000
8000
8000
8000
8000
FFC0
8000
8000
8000
8000
8000
8000
FFE0
ENDCHAR
STARTCHAR F
ENCODING 70
SWIDTH 687 0
DWIDTH 14 0
BBX 11 14 2 0
BITMAP
FFE0
8000
8000
8000
8000
8000
FFE0
8000
8000
8000
8000
8000
8000
8000
ENDCHAR
STARTCHAR G
ENCODING 71
SWIDTH 910 0
DWIDTH 18 0
BBX 15 14 1 0
BITMAP
07F0
180C
2002
4000
8000
8000
8000
80FE
8002
4002
4002
2002
1806
07F8
ENDCHAR
STARTCHAR H
ENCODING 72
SWIDTH 949 0
DWIDTH 19 0
BBX 14 14 2 0
BITMAP
8004
8004
8004
8004
8004
8004
FFFC
8004
8004
8004
8004
8004
8004
8004
ENDCHAR
STARTCHAR I
ENCODING 73
SWIDTH 287 0
DWIDTH 6 0
BBX 1 14 2 0
BITMAP
80
80
80
80
80
80
80
80
80
80
80
80
80
80
ENDCHAR
STARTCHAR J
ENCODING 74
SWIDTH 590 0
DWIDTH 12 0
BBX 10 14 0 0
BITMAP
0040
0040
0040
0040
0040
0040
0040
0040
0040
0040
0040
0080
8100
7E00
ENDCHAR
STARTCHAR K
ENCODING 75
SWIDTH 806 0
DWIDTH 16 0
BBX 13 14 2 0
BITMAP
8038
8040
8180
8200
8C00
9000
E000
B000
8800
8600
8100
80C0
8020
8018
ENDCHAR
STARTCHAR L
ENCODING 76
SWIDTH 701 0
DWIDTH 14 0
BBX 11 14 2 0
BITMAP
8000
8000
8000
8000
8000
8000
8000
8000
8000
8000
8000
8000
8000
FFE0
ENDCHAR
STARTCHAR M
ENCODING 77
SWIDTH 1139 0
DWIDTH 23 0
BBX 18 14 2 0
BITMAP
800040
C000C0
A00140
A00140
900240
900240
880440
840840
840840
821040
811040
812040
80C040
80C040
ENDCHAR
STARTCHAR N
ENCODING 78
SWIDTH 936 0
DWIDTH 19 0
BBX 14 14 2 0
BITMAP
8004
C004
A004
9004
8804
8404
8204
8104
8084
8044
8024
8014
800C
8004
ENDCHAR
STARTCHAR O
ENCODING 79
SWIDTH 983 0
DWIDTH 20 0
BBX 17 14 1 0
BITMAP
07F000
180C00
200200
400100
800080
800080
800080
800080
800080
800080
400100
200200
180C00
07F000
ENDCHAR
STARTCHAR P
ENCODING 80
SWIDTH 818 0
DWIDTH 16 0
BBX 13 14 2 0
BITMAP
FFE0
8010
8008
8008
8008
8008
8008
8030
FFC0
8000
8000
8000
8000
8000
ENDCHAR
STARTCHAR Q
ENCODING 81
SWIDTH 983 0
DWIDTH 20 0
BBX 18 14 1 0
BITMAP
07F000
180C00
200200
400100
800080
800080
800080
800080
800080
800080
402100
201A00
180F00
07F0C0
ENDCHAR
STARTCHAR R
ENCODING 82
SWIDTH 833 0
DWIDTH 17 0
BBX 13 14 2 0
BITMAP
FFC0
8020
8010
8010
8010
8010
8020
FFC0
8080
8040
8020
8020
8010
8008
ENDCHAR
STARTCHAR S
ENCODING 83
SWIDTH 787 0
DWIDTH 16 0
BBX 12 14 2 0
BITMAP
3F80
4060
8000
8000
8000
6000
1E00
01C0
0020
0010
0010
0010
8060
7F80
ENDCHAR
STARTCHAR T
ENCODING 84
SWIDTH 708 0
DWIDTH 14 0
BBX 13 14 1 0
BITMAP
FFF8
0200
0200
0200
0200
0200
0200
0200
0200
0200
0200
0200
0200
0200
ENDCHAR
STARTCHAR U
ENCODING 85
SWIDTH 891 0
DWIDTH 18 0
BBX 14 14 2 0
BITMAP
8004
8004
8004
8004
8004
8004
8004
8004
8004
8004
8004
4008
2010
1FE0
ENDCHAR
STARTCHAR V
ENCODING 86
SWIDTH 817 0
DWIDTH 16 0
BBX 15 14 1 0
BITMAP
8002
4004
4004
2008
2008
1010
1010
0820
0820
0440
0440
0280
0280
0100
ENDCHAR
STARTCHAR W
ENCODING 87
SWIDTH 1266 0
DWIDTH 25 0
BBX 23 14 1 0
BITMAP
801002
802802
402804
406C04
404404
204408
208208
308218
110110
110110
090120
0A00A0
0A00A0
040040
ENDCHAR
STARTCHAR X
ENCODING 88
SWIDTH 821 0
DWIDTH 16 0
BBX 13 14 2 0
BITMAP
8008
4010
2020
1040
0880
0500
0200
0500
0500
0880
1040
2020
4010
8008
ENDCHAR
STARTCHAR Y
ENCODING 89
SWIDTH 763 0
DWIDTH 15 0
BBX 13 14 1 0
BITMAP
8008
4010
2020
3060
1040
0880
0500
0200
0200
0200
0200
0200
0200
0200
ENDCHAR
STARTCHAR Z
ENCODING 90
SWIDTH 728 0
DWIDTH 15 0
BBX 12 14 1 0
BITMAP
FFF0
0020
0040
0080
0180
0100
0200
0400
0800
1000
2000
6000
4000
FFF0
ENDCHAR
STARTCHAR bracketleft
ENCODING 91
SWIDTH 409 0
DWIDTH 8 0
BBX 5 16 3 -1
BITMAP
F8
80
80
80
80
80
80
80
80
80
80
80
80
80
80
F8
ENDCHAR
STARTCHAR backslash
ENCODING 92
SWIDTH 500 0
DWIDTH 10 0
BBX 8 14 1 0
BITMAP
80
40
40
20
20
10
10
08
08
04
04
02
02
01
ENDCHAR
STARTCHAR bracketright
ENCODING 93
SWIDTH 409 0
DWIDTH 8 0
BBX 5 16 1 -1
BITMAP
F8
08
08
08
08
08
08
08
08
08
08
08
08
08
08
F8
ENDCHAR
STARTCHAR asciicircum
ENCODING 94
SWIDTH 459 0
DWIDTH 9 0
BBX 7 6 1 8
BITMAP
10
28
28
44
44
82
ENDCHAR
STARTCHAR underscore
ENCODING 95
SWIDTH 500 0
DWIDTH 10 0
BBX 10 1 0 -2
BITMAP
FFC0
ENDCHAR
STARTCHAR grave
ENCODING 96
SWIDTH 527 0
DWIDTH 11 0
BBX 4 3 2 11
BITMAP
80
60
10
ENDCHAR
STARTCHAR a
ENCODING 97
SWIDTH 888 0
DWIDTH 18 0
BBX 14 14 1 0
BITMAP
1FE0
6010
0008
0004
0004
00FC
0F04
3004
4004
8004
8004
800C
4034
3FC4
ENDCHAR
STARTCHAR b
ENCODING 98
SWIDTH 836 0
DWIDTH 17 0
BBX 13 14 2 0
BITMAP
FFC0
8020
8010
8010
8010
8020
FFC0
8030
8008
8008
8008
8008
8010
FFE0
ENDCHAR
STARTCHAR c
ENCODING 99
SWIDTH 869 0
DWIDTH 17 0
BBX 15 14 1 0
BITMAP
07F0
180C
2002
4000
8000
8000
8000
8000
8000
8000
4000
2002
180C
07F0
ENDCHAR
STARTCHAR d
ENCODING 100
SWIDTH 910 0
DWIDTH 18 0
BBX 14 14 2 0
BITMAP
FFC0
8030
8008
8008
8004
8004
8004
8004
8004
8004
8008
8008
8030
FFC0
ENDCHAR
STARTCHAR e
ENCODING 101
SWIDTH 910 0
DWIDTH 18 0
BBX 15 14 1 0
BITMAP
07E0
1818
2004
4004
8002
8002
FFFE
8000
8000
8000
4000
2000
1804
07F8
ENDCHAR
STARTCHAR f
ENCODING 102
SWIDTH 817 0
DWIDTH 16 0
BBX 13 14 2 0
BITMAP
1FF8
6000
8000
8000
8000
8000
FFF8
8000
8000
8000
8000
8000
8000
8000
ENDCHAR
STARTCHAR g
ENCODING 103
SWIDTH 910 0
DWIDTH 18 0
BBX 15 14 1 0
BITMAP
07F0
180C
2002
4000
8000
8000
8000
80FE
8002
4002
4002
2002
1806
07F8
ENDCHAR
STARTCHAR h
ENCODING 104
SWIDTH 949 0
DWIDTH 19 0
BBX 14 14 2 0
BITMAP
8004
8004
8004
8004
8004
8004
FFFC
8004
8004
8004
8004
8004
8004
8004
ENDCHAR
STARTCHAR i
ENCODING 105
SWIDTH 287 0
DWIDTH 6 0
BBX 1 14 2 0
BITMAP
80
80
80
80
80
80
80
80
80
80
80
80
80
80
ENDCHAR
STARTCHAR j
ENCODING 106
SWIDTH 590 0
DWIDTH 12 0
BBX 10 14 0 0
BITMAP
0040
0040
0040
0040
0040
0040
0040
0040
0040
0040
0040
0080
8100
7E00
ENDCHAR
STARTCHAR k
ENCODING 107
SWIDTH 867 0
DWIDTH 17 0
BBX 14 14 2 0
BITMAP
8008
8008
8010
8020
8040
8180
FE00
81C0
8020
8010
8008
8008
8004
8004
ENDCHAR
STARTCHAR l
ENCODING 108
SWIDTH 709 0
DWIDTH 14 0
BBX 12 14 2 0
BITMAP
8000
8000
8000
8000
8000
8000
8000
8000
8000
8000
8000
8000
4000
3FF0
ENDCHAR
STARTCHAR m
ENCODING 109
SWIDTH 1246 0
DWIDTH 25 0
BBX 21 14 2 0
BITMAP
8F83E0
B0CC10
C03008
802008
802008
802008
802008
802008
802008
802008
802008
802008
802008
802008
ENDCHAR
STARTCHAR n
ENCODING 110
SWIDTH 933 0
DWIDTH 19 0
BBX 14 14 2 0
BITMAP
83E0
9C18
A004
C004
8004
8004
8004
8004
8004
8004
8004
8004
8004
8004
ENDCHAR
STARTCHAR o
ENCODING 111
SWIDTH 983 0
DWIDTH 20 0
BBX 17 14 1 0
BITMAP
07F000
180C00
200200
400100
800080
800080
800080
800080
800080
800080
400100
200200
180C00
07F000
ENDCHAR
STARTCHAR p
ENCODING 112
SWIDTH 818 0
DWIDTH 16 0
BBX 13 14 2 0
BITMAP
FFE0
8010
8008
8008
8008
8008
8008
8030
FFC0
8000
8000
8000
8000
8000
ENDCHAR
STARTCHAR q
ENCODING 113
SWIDTH 983 0
DWIDTH 20 0
BBX 18 14 1 0
BITMAP
07F000
180C00
200200
400100
800080
800080
800080
800080
800080
800080
400100
200200
180E00
07F1C0
ENDCHAR
STARTCHAR r
ENCODING 114
SWIDTH 609 0
DWIDTH 12 0
BBX 10 14 2 0
BITMAP
87C0
9800
A000
C000
8000
8000
8000
8000
8000
8000
8000
8000
8000
8000
ENDCHAR
STARTCHAR s
ENCODING 115
SWIDTH 787 0
DWIDTH 16 0
BBX 12 14 2 0
BITMAP
3F80
4060
8000
8000
8000
6000
1E00
01C0
0020
0010
0010
0010
8060
7F80
ENDCHAR
STARTCHAR t
ENCODING 116
SWIDTH 708 0
DWIDTH 14 0
BBX 13 14 1 0
BITMAP
FFF8
0200
0200
0200
0200
0200
0200
0200
0200
0200
0200
0200
0200
0200
ENDCHAR
STARTCHAR u
ENCODING 117
SWIDTH 931 0
DWIDTH 19 0
BBX 14 14 2 0
BITMAP
8004
8004
8004
8004
8004
8004
8004
8004
8004
8004
800C
8014
4064
3F84
ENDCHAR
STARTCHAR v
ENCODING 118
SWIDTH 817 0
DWIDTH 16 0
BBX 15 14 1 0
BITMAP
8002
4004
4004
2008
2008
1010
1010
0820
0820
0440
0440
0280
0280
0100
ENDCHAR
STARTCHAR w
ENCODING 119
SWIDTH 1266 0
DWIDTH 25 0
BBX 23 14 1 0
BITMAP
801002
802802
402804
406C04
404404
204408
208208
308218
110110
110110
090120
0A00A0
0A00A0
040040
ENDCHAR
STARTCHAR x
ENCODING 120
SWIDTH 821 0
DWIDTH 16 0
BBX 13 14 2 0
BITMAP
8008
4010
2020
1040
0880
0500
0200
0500
0500
0880
1040
2020
4010
8008
ENDCHAR
STARTCHAR y
ENCODING 121
SWIDTH 911 0
DWIDTH 18 0
BBX 14 14 2 0
BITMAP
8004
8004
8004
8004
8004
800C
4014
2064
1F84
0004
0004
0008
C030
3FC0
ENDCHAR
STARTCHAR z
ENCODING 122
SWIDTH 728 0
DWIDTH 15 0
BBX 12 14 1 0
BITMAP
FFF0
0020
0040
0080
0180
0100
0200
0400
0800
1000
2000
6000
4000
FFF0
ENDCHAR
STARTCHAR braceleft
ENCODING 123
SWIDTH 386 0
DWIDTH 8 0
BBX 6 16 1 -1
BITMAP
1C
20
20
20
20
20
20
C0
60
20
20
20
20
20
20
1C
ENDCHAR
STARTCHAR bar
ENCODING 124
SWIDTH 259 0
DWIDTH 5 0
BBX 1 20 2 -5
BITMAP
80
80
80
80
80
80
80
80
80
80
80
80
80
80
80
80
80
80
80
80
ENDCHAR
STARTCHAR braceright
ENCODING 125
SWIDTH 386 0
DWIDTH 8 0
BBX 6 16 1 -1
BITMAP
E0
10
10
10
10
10
10
0C
18
10
10
10
10
10
10
E0
ENDCHAR
STARTCHAR asciitilde
ENCODING 126
SWIDTH 634 0
DWIDTH 13 0
BBX 10 2 2 6
BITMAP
7840
8780
ENDCHAR
STARTCHAR nonbreakingspace
ENCODING 160
SWIDTH 375 0
DWIDTH 8 0
BBX 1 1 0 0
BITMAP
00
ENDCHAR
STARTCHAR exclamdown
ENCODING 161
SWIDTH 274 0
DWIDTH 6 0
BBX 1 14 2 0
BITMAP
80
80
00
00
80
80
80
80
80
80
80
80
80
80
ENDCHAR
STARTCHAR cent
ENCODING 162
SWIDTH 736 0
DWIDTH 15 0
BBX 13 16 1 -1
BITMAP
0100
0100
07E0
1910
2108
4100
8100
8100
8100
8100
4100
2108
1110
0FE0
0100
0100
ENDCHAR
STARTCHAR sterling
ENCODING 163
SWIDTH 792 0
DWIDTH 16 0
BBX 14 14 1 0
BITMAP
03F0
0408
0800
1000
1000
1000
1000
FFE0
1000
1000
1000
1000
3E04
C1F8
ENDCHAR
STARTCHAR currency
ENCODING 164
SWIDTH 560 0
DWIDTH 11 0
BBX 9 9 1 2
BITMAP
8080
5D00
2200
4100
4100
4100
2200
5D00
8080
ENDCHAR
STARTCHAR yen
ENCODING 165
SWIDTH 811 0
DWIDTH 16 0
BBX 13 14 2 0
BITMAP
8008
4010
2020
3060
1040
0880
FDF8
0200
0200
FFF8
0200
0200
0200
0200
ENDCHAR
STARTCHAR brokenbar
ENCODING 166
SWIDTH 259 0
DWIDTH 5 0
BBX 1 17 2 -3
BITMAP
80
80
80
80
80
80
80
00
00
00
80
80
80
80
80
80
80
ENDCHAR
STARTCHAR section
ENCODING 167
SWIDTH 500 0
DWIDTH 10 0
BBX 8 14 1 0
BITMAP
3C
42
40
40
38
46
81
81
62
1C
02
02
42
3C
ENDCHAR
STARTCHAR dieresis
ENCODING 168
SWIDTH 527 0
DWIDTH 11 0
BBX 5 1 3 11
BITMAP
88
ENDCHAR
STARTCHAR copyright
ENCODING 169
SWIDTH 770 0
DWIDTH 15 0
BBX 13 13 1 0
BITMAP
0F80
1040
27A0
4850
9008
9008
9008
9008
8848
4790
2020
1040
0F80
ENDCHAR
STARTCHAR ordfeminine
ENCODING 170
SWIDTH 497 0
DWIDTH 10 0
BBX 8 9 1 5
BITMAP
3E
41
01
3F
C1
83
7D
00
FF
ENDCHAR
STARTCHAR guillemotleft
ENCODING 171
SWIDTH 440 0
DWIDTH 9 0
BBX 8 7 1 3
BITMAP
11
22
44
88
44
22
11
ENDCHAR
STARTCHAR logicalnot
ENCODING 172
SWIDTH 634 0
DWIDTH 13 0
BBX 9 4 2 5
BITMAP
FF80
0080
0080
0080
ENDCHAR
STARTCHAR uni00AD
ENCODING 173
SWIDTH 540 0
DWIDTH 11 0
BBX 8 1 2 6
BITMAP
FF
ENDCHAR
STARTCHAR registered
ENCODING 174
SWIDTH 600 0
DWIDTH 12 0
BBX 10 10 1 4
BITMAP
1E00
2100
5C80
9240
9240
9C40
9440
5280
2100
1E00
ENDCHAR
STARTCHAR macron
ENCODING 175
SWIDTH 527 0
DWIDTH 11 0
BBX 5 1 3 11
BITMAP
F8
ENDCHAR
STARTCHAR degree
ENCODING 176
SWIDTH 373 0
DWIDTH 7 0
BBX 5 5 1 9
BITMAP
70
88
88
88
70
ENDCHAR
STARTCHAR plusminus
ENCODING 177
SWIDTH 634 0
DWIDTH 13 0
BBX 9 11 2 1
BITMAP
0800
0800
0800
0800
FF80
0800
0800
0800
0800
0000
FF80
ENDCHAR
STARTCHAR twosuperior
ENCODING 178
SWIDTH 511 0
DWIDTH 10 0
BBX 8 9 1 5
BITMAP
7C
82
01
01
02
04
18
60
FF
ENDCHAR
STARTCHAR threesuperior
ENCODING 179
SWIDTH 512 0
DWIDTH 10 0
BBX 8 9 1 5
BITMAP
7C
82
01
02
1C
02
01
82
7C
ENDCHAR
STARTCHAR acute
ENCODING 180
SWIDTH 527 0
DWIDTH 11 0
BBX 4 3 4 11
BITMAP
10
60
80
ENDCHAR
STARTCHAR micro
ENCODING 181
SWIDTH 705 0
DWIDTH 14 0
BBX 12 13 0 -4
BITMAP
1010
1010
2020
2020
2020
2020
2060
51A0
4E20
4000
4000
4000
8000
ENDCHAR
STARTCHAR paragraph
ENCODING 182
SWIDTH 585 0
DWIDTH 12 0
BBX 8 14 1 0
BITMAP
3F
79
F9
F9
F9
F9
79
39
09
09
09
09
09
09
ENDCHAR
STARTCHAR periodcentered
ENCODING 183
SWIDTH 185 0
DWIDTH 4 0
BBX 2 2 1 6
BITMAP
C0
C0
ENDCHAR
STARTCHAR cedilla
ENCODING 184
SWIDTH 527 0
DWIDTH 11 0
BBX 4 4 4 -4
BITMAP
40
E0
10
E0
ENDCHAR
STARTCHAR onesuperior
ENCODING 185
SWIDTH 261 0
DWIDTH 5 0
BBX 3 9 0 5
BITMAP
60
A0
20
20
20
20
20
20
20
ENDCHAR
STARTCHAR ordmasculine
ENCODING 186
SWIDTH 520 0
DWIDTH 10 0
BBX 9 9 1 5
BITMAP
3E00
4100
8080
8080
8080
4100
3E00
0000
FF80
ENDCHAR
STARTCHAR guillemotright
ENCODING 187
SWIDTH 440 0
DWIDTH 9 0
BBX 8 7 0 3
BITMAP
88
44
22
11
22
44
88
ENDCHAR
STARTCHAR onequarter
ENCODING 188
SWIDTH 857 0
DWIDTH 17 0
BBX 16 14 0 0
BITMAP
6008
A010
2020
2040
2080
2080
2100
020C
0414
0424
0844
10FF
2004
4004
ENDCHAR
STARTCHAR onehalf
ENCODING 189
SWIDTH 937 0
DWIDTH 19 0
BBX 17 14 0 0
BITMAP
600800
A01000
202000
204000
208000
208000
210000
021F00
042080
040080
080100
100200
200C00
403F80
ENDCHAR
STARTCHAR threequarters
ENCODING 190
SWIDTH 978 0
DWIDTH 20 0
BBX 18 14 1 0
BITMAP
7C0200
820400
020800
3C1000
062000
822000
7C4000
008300
010500
010900
021100
043FC0
080100
100100
ENDCHAR
STARTCHAR questiondown
ENCODING 191
SWIDTH 568 0
DWIDTH 11 0
BBX 9 14 1 0
BITMAP
0200
0200
0000
0000
0200
0200
1E00
2000
4000
8000
8000
8000
4080
3F00
ENDCHAR
STARTCHAR Agrave
ENCODING 192
SWIDTH 812 0
DWIDTH 16 0
BBX 15 18 1 0
BITMAP
0800
0600
0100
0000
0100
0280
0280
0440
0440
0820
0820
1010
1010
3FF8
2008
4004
4004
8002
ENDCHAR
STARTCHAR Aacute
ENCODING 193
SWIDTH 812 0
DWIDTH 16 0
BBX 15 18 1 0
BITMAP
0040
0180
0200
0000
0100
0280
0280
0440
0440
0820
0820
1010
1010
3FF8
2008
4004
4004
8002
ENDCHAR
STARTCHAR Acircumflex
ENCODING 194
SWIDTH 812 0
DWIDTH 16 0
BBX 15 18 1 0
BITMAP
0180
0640
0830
0000
0100
0280
0280
0440
0440
0820
0820
1010
1010
3FF8
2008
4004
4004
8002
ENDCHAR
STARTCHAR Atilde
ENCODING 195
SWIDTH 812 0
DWIDTH 16 0
BBX 15 17 1 0
BITMAP
0E20
09C0
0000
0100
0280
0280
0440
0440
0820
0820
1010
1010
3FF8
2008
4004
4004
8002
ENDCHAR
STARTCHAR Adieresis
ENCODING 196
SWIDTH 812 0
DWIDTH 16 0
BBX 15 16 1 0
BITMAP
0440
0000
0100
0280
0280
0440
0440
0820
0820
1010
1010
3FF8
2008
4004
4004
8002
ENDCHAR
STARTCHAR Aring
ENCODING 197
SWIDTH 812 0
DWIDTH 16 0
BBX 15 19 1 0
BITMAP
0380
0440
0440
0380
0000
0100
0280
0280
0440
0440
0820
0820
1010
1010
3FF8
2008
4004
4004
8002
ENDCHAR
STARTCHAR AE
ENCODING 198
SWIDTH 1172 0
DWIDTH 23 0
BBX 21 14 1 0
BITMAP
00FFF8
00A000
012000
022000
022000
042000
043FF0
082000
102000
1FE000
202000
402000
402000
803FF8
ENDCHAR
STARTCHAR Ccedilla
ENCODING 199
SWIDTH 869 0
DWIDTH 17 0
BBX 15 18 1 -4
BITMAP
07F0
180C
2002
4000
8000
8000
8000
8000
8000
8000
4000
2002
180C
07F0
0100
0180
0040
0380
ENDCHAR
STARTCHAR Egrave
ENCODING 200
SWIDTH 754 0
DWIDTH 15 0
BBX 11 18 2 0
BITMAP
1000
3800
0400
0000
FFE0
8000
8000
8000
8000
8000
FFC0
8000
8000
8000
8000
8000
8000
FFE0
ENDCHAR
STARTCHAR Eacute
ENCODING 201
SWIDTH 754 0
DWIDTH 15 0
BBX 11 18 2 0
BITMAP
0100
0300
0C00
0000
FFE0
8000
8000
8000
8000
8000
FFC0
8000
8000
8000
8000
8000
8000
FFE0
ENDCHAR
STARTCHAR Ecircumflex
ENCODING 202
SWIDTH 754 0
DWIDTH 15 0
BBX 11 18 2 0
BITMAP
0400
1B00
6080
0000
FFE0
8000
8000
8000
8000
8000
FFC0
8000
8000
8000
8000
8000
8000
FFE0
ENDCHAR
STARTCHAR Edieresis
ENCODING 203
SWIDTH 754 0
DWIDTH 15 0
BBX 11 16 2 0
BITMAP
1100
0000
FFE0
8000
8000
8000
8000
8000
FFC0
8000
8000
8000
8000
8000
8000
FFE0
ENDCHAR
STARTCHAR Igrave
ENCODING 204
SWIDTH 287 0
DWIDTH 6 0
BBX 4 18 0 0
BITMAP
80
C0
30
00
20
20
20
20
20
20
20
20
20
20
20
20
20
20
ENDCHAR
STARTCHAR Iacute
ENCODING 205
SWIDTH 287 0
DWIDTH 6 0
BBX 4 18 2 0
BITMAP
20
70
80
00
80
80
80
80
80
80
80
80
80
80
80
80
80
80
ENDCHAR
STARTCHAR Icircumflex
ENCODING 206
SWIDTH 287 0
DWIDTH 6 0
BBX 8 18 -1 0
BITMAP
10
6C
83
00
10
10
10
10
10
10
10
10
10
10
10
10
10
10
ENDCHAR
STARTCHAR Idieresis
ENCODING 207
SWIDTH 287 0
DWIDTH 6 0
BBX 5 16 0 0
BITMAP
88
00
20
20
20
20
20
20
20
20
20
20
20
20
20
20
ENDCHAR
STARTCHAR Eth
ENCODING 208
SWIDTH 910 0
DWIDTH 18 0
BBX 16 14 0 0
BITMAP
3FF0
200C
2002
2002
2001
2001
FF01
2001
2001
2001
2002
2002
200C
3FF0
ENDCHAR
STARTCHAR Ntilde
ENCODING 209
SWIDTH 936 0
DWIDTH 19 0
BBX 14 17 2 0
BITMAP
0720
08E0
0000
8004
C004
A004
9004
8804
8404
8204
8104
8084
8044
8024
8014
800C
8004
ENDCHAR
STARTCHAR Ograve
ENCODING 210
SWIDTH 983 0
DWIDTH 20 0
BBX 17 18 1 0
BITMAP
020000
030000
00C000
000000
07F000
180C00
200200
400100
800080
800080
800080
800080
800080
800080
400100
200200
180C00
07F000
ENDCHAR
STARTCHAR Oacute
ENCODING 211
SWIDTH 983 0
DWIDTH 20 0
BBX 17 18 1 0
BITMAP
002000
007000
008000
000000
07F000
180C00
200200
400100
800080
800080
800080
800080
800080
800080
400100
200200
180C00
07F000
ENDCHAR
STARTCHAR Ocircumflex
ENCODING 212
SWIDTH 983 0
DWIDTH 20 0
BBX 17 18 1 0
BITMAP
008000
036000
041800
000000
07F000
180C00
200200
400100
800080
800080
800080
800080
800080
800080
400100
200200
180C00
07F000
ENDCHAR
STARTCHAR Otilde
ENCODING 213
SWIDTH 983 0
DWIDTH 20 0
BBX 17 17 1 0
BITMAP
073000
04E000
000000
07F000
180C00
200200
400100
800080
800080
800080
800080
800080
800080
400100
200200
180C00
07F000
ENDCHAR
STARTCHAR Odieresis
ENCODING 214
SWIDTH 983 0
DWIDTH 20 0
BBX 17 16 1 0
BITMAP
022000
000000
07F000
180C00
200200
400100
800080
800080
800080
800080
800080
800080
400100
200200
180C00
07F000
ENDCHAR
STARTCHAR multiply
ENCODING 215
SWIDTH 634 0
DWIDTH 13 0
BBX 8 8 2 3
BITMAP
81
42
24
18
18
24
42
81
ENDCHAR
STARTCHAR Oslash
ENCODING 216
SWIDTH 983 0
DWIDTH 20 0
BBX 17 18 1 -2
BITMAP
000200
000400
07F800
180C00
201200
402100
802080
804080
808080
808080
810080
820080
420100
240200
180C00
0FF000
100000
200000
ENDCHAR
STARTCHAR Ugrave
ENCODING 217
SWIDTH 891 0
DWIDTH 18 0
BBX 14 18 2 0
BITMAP
0800
0E00
0300
0000
8004
8004
8004
8004
8004
8004
8004
8004
8004
8004
8004
4008
2010
1FE0
ENDCHAR
STARTCHAR Uacute
ENCODING 218
SWIDTH 891 0
DWIDTH 18 0
BBX 14 18 2 0
BITMAP
0080
01C0
0200
0000
8004
8004
8004
8004
8004
8004
8004
8004
8004
8004
8004
4008
2010
1FE0
ENDCHAR
STARTCHAR Ucircumflex
ENCODING 219
SWIDTH 891 0
DWIDTH 18 0
BBX 14 18 2 0
BITMAP
0300
0C80
1060
0000
8004
8004
8004
8004
8004
8004
8004
8004
8004
8004
8004
4008
2010
1FE0
ENDCHAR
STARTCHAR Udieresis
ENCODING 220
SWIDTH 891 0
DWIDTH 18 0
BBX 14 16 2 0
BITMAP
0440
0000
8004
8004
8004
8004
8004
8004
8004
8004
8004
8004
8004
4008
2010
1FE0
ENDCHAR
STARTCHAR Yacute
ENCODING 221
SWIDTH 763 0
DWIDTH 15 0
BBX 13 18 1 0
BITMAP
0080
0180
0600
0000
8008
4010
2020
3060
1040
0880
0500
0200
0200
0200
0200
0200
0200
0200
ENDCHAR
STARTCHAR Thorn
ENCODING 222
SWIDTH 787 0
DWIDTH 16 0
BBX 12 14 2 0
BITMAP
8000
8000
FFC0
8020
8010
8010
8010
8010
8020
FFC0
8000
8000
8000
8000
ENDCHAR
STARTCHAR germandbls
ENCODING 223
SWIDTH 863 0
DWIDTH 17 0
BBX 14 14 2 0
BITMAP
1FC0
2030
4008
8008
8008
8030
8FC0
8038
8004
8004
8004
8004
9818
87E0
ENDCHAR
STARTCHAR agrave
ENCODING 224
SWIDTH 888 0
DWIDTH 18 0
BBX 14 18 1 0
BITMAP
0800
0C00
0300
0000
1FE0
6010
0008
0004
0004
00FC
0F04
3004
4004
8004
8004
800C
4034
3FC4
ENDCHAR
STARTCHAR aacute
ENCODING 225
SWIDTH 888 0
DWIDTH 18 0
BBX 14 18 1 0
BITMAP
0040
00E0
0100
0000
1FE0
6010
0008
0004
0004
00FC
0F04
3004
4004
8004
8004
800C
4034
3FC4
ENDCHAR
STARTCHAR acircumflex
ENCODING 226
SWIDTH 888 0
DWIDTH 18 0
BBX 14 18 1 0
BITMAP
0100
06C0
0830
0000
1FE0
6010
0008
0004
0004
00FC
0F04
3004
4004
8004
8004
800C
4034
3FC4
ENDCHAR
STARTCHAR atilde
ENCODING 227
SWIDTH 888 0
DWIDTH 18 0
BBX 14 17 1 0
BITMAP
0730
04E0
0000
1FE0
6010
0008
0004
0004
00FC
0F04
3004
4004
8004
8004
800C
4034
3FC4
ENDCHAR
STARTCHAR adieresis
ENCODING 228
SWIDTH 888 0
DWIDTH 18 0
BBX 14 16 1 0
BITMAP
0440
0000
1FE0
6010
0008
0004
0004
00FC
0F04
3004
4004
8004
8004
800C
4034
3FC4
ENDCHAR
STARTCHAR aring
ENCODING 229
SWIDTH 888 0
DWIDTH 18 0
BBX 14 19 1 0
BITMAP
0380
0440
0440
0380
0000
1FE0
6010
0008
0004
0004
00FC
0F04
3004
4004
8004
8004
800C
4034
3FC4
ENDCHAR
STARTCHAR ae
ENCODING 230
SWIDTH 1551 0
DWIDTH 31 0
BBX 28 14 1 0
BITMAP
1FE03F00
6010C0C0
00090020
00060020
00040010
00FC0010
1F07FFF0
20040000
40040000
80040000
80020000
800D0000
6070C020
3F803FC0
ENDCHAR
STARTCHAR ccedilla
ENCODING 231
SWIDTH 869 0
DWIDTH 17 0
BBX 15 18 1 -4
BITMAP
07F0
180C
2002
4000
8000
8000
8000
8000
8000
8000
4000
2002
180C
07F0
0100
0180
0040
0380
ENDCHAR
STARTCHAR egrave
ENCODING 232
SWIDTH 910 0
DWIDTH 18 0
BBX 15 18 1 0
BITMAP
0400
0300
0080
0000
07E0
1818
2004
4004
8002
8002
FFFE
8000
8000
8000
4000
2000
1804
07F8
ENDCHAR
STARTCHAR eacute
ENCODING 233
SWIDTH 910 0
DWIDTH 18 0
BBX 15 18 1 0
BITMAP
0020
00C0
0100
0000
07E0
1818
2004
4004
8002
8002
FFFE
8000
8000
8000
4000
2000
1804
07F8
ENDCHAR
STARTCHAR ecircumflex
ENCODING 234
SWIDTH 910 0
DWIDTH 18 0
BBX 15 18 1 0
BITMAP
0180
0640
0830
0000
07E0
1818
2004
4004
8002
8002
FFFE
8000
8000
8000
4000
2000
1804
07F8
ENDCHAR
STARTCHAR edieresis
ENCODING 235
SWIDTH 910 0
DWIDTH 18 0
BBX 15 16 1 0
BITMAP
0220
0000
07E0
1818
2004
4004
8002
8002
FFFE
8000
8000
8000
4000
2000
1804
07F8
ENDCHAR
STARTCHAR igrave
ENCODING 236
SWIDTH 287 0
DWIDTH 6 0
BBX 4 18 0 0
BITMAP
80
C0
30
00
20
20
20
20
20
20
20
20
20
20
20
20
20
20
ENDCHAR
STARTCHAR iacute
ENCODING 237
SWIDTH 287 0
DWIDTH 6 0
BBX 4 18 2 0
BITMAP
20
70
80
00
80
80
80
80
80
80
80
80
80
80
80
80
80
80
ENDCHAR
STARTCHAR icircumflex
ENCODING 238
SWIDTH 287 0
DWIDTH 6 0
BBX 8 18 -1 0
BITMAP
10
6C
83
00
10
10
10
10
10
10
10
10
10
10
10
10
10
10
ENDCHAR
STARTCHAR idieresis
ENCODING 239
SWIDTH 287 0
DWIDTH 6 0
BBX 5 16 0 0
BITMAP
88
00
20
20
20
20
20
20
20
20
20
20
20
20
20
20
ENDCHAR
STARTCHAR eth
ENCODING 240
SWIDTH 910 0
DWIDTH 18 0
BBX 16 14 0 0
BITMAP
3FF0
200C
2002
2002
2001
2001
FF01
2001
2001
2001
2002
2002
200C
3FF0
ENDCHAR
STARTCHAR ntilde
ENCODING 241
SWIDTH 933 0
DWIDTH 19 0
BBX 14 17 2 0
BITMAP
0E20
09C0
0000
83E0
9C18
A004
C004
8004
8004
8004
8004
8004
8004
8004
8004
8004
8004
ENDCHAR
STARTCHAR ograve
ENCODING 242
SWIDTH 983 0
DWIDTH 20 0
BBX 17 18 1 0
BITMAP
020000
030000
00C000
000000
07F000
180C00
200200
400100
800080
800080
800080
800080
800080
800080
400100
200200
180C00
07F000
ENDCHAR
STARTCHAR oacute
ENCODING 243
SWIDTH 983 0
DWIDTH 20 0
BBX 17 18 1 0
BITMAP
002000
007000
008000
000000
07F000
180C00
200200
400100
800080
800080
800080
800080
800080
800080
400100
200200
180C00
07F000
ENDCHAR
STARTCHAR ocircumflex
ENCODING 244
SWIDTH 983 0
DWIDTH 20 0
BBX 17 18 1 0
BITMAP
008000
036000
041800
000000
07F000
180C00
200200
400100
800080
800080
800080
800080
800080
800080
400100
200200
180C00
07F000
ENDCHAR
STARTCHAR otilde
ENCODING 245
SWIDTH 983 0
DWIDTH 20 0
BBX 17 17 1 0
BITMAP
073000
04E000
000000
07F000
180C00
200200
400100
800080
800080
800080
800080
800080
800080
400100
200200
180C00
07F000
ENDCHAR
STARTCHAR odieresis
ENCODING 246
SWIDTH 983 0
DWIDTH 20 0
BBX 17 16 1 0
BITMAP
022000
000000
07F000
180C00
200200
400100
800080
800080
800080
800080
800080
800080
400100
200200
180C00
07F000
ENDCHAR
STARTCHAR divide
ENCODING 247
SWIDTH 634 0
DWIDTH 13 0
BBX 9 7 2 3
BITMAP
0800
0800
0000
FF80
0000
0800
0800
ENDCHAR
STARTCHAR oslash
ENCODING 248
SWIDTH 983 0
DWIDTH 20 0
BBX 17 18 1 -2
BITMAP
000200
000400
07F800
180C00
201200
402100
802080
804080
808080
808080
810080
820080
420100
240200
180C00
0FF000
100000
200000
ENDCHAR
STARTCHAR ugrave
ENCODING 249
SWIDTH 931 0
DWIDTH 19 0
BBX 14 18 2 0
BITMAP
0800
0600
0100
0000
8004
8004
8004
8004
8004
8004
8004
8004
8004
8004
800C
8014
4064
3F84
ENDCHAR
STARTCHAR uacute
ENCODING 250
SWIDTH 931 0
DWIDTH 19 0
BBX 14 18 2 0
BITMAP
0040
0180
0200
0000
8004
8004
8004
8004
8004
8004
8004
8004
8004
8004
800C
8014
4064
3F84
ENDCHAR
STARTCHAR ucircumflex
ENCODING 251
SWIDTH 931 0
DWIDTH 19 0
BBX 14 18 2 0
BITMAP
0180
0660
0810
0000
8004
8004
8004
8004
8004
8004
8004
8004
8004
8004
800C
8014
4064
3F84
ENDCHAR
STARTCHAR udieresis
ENCODING 252
SWIDTH 931 0
DWIDTH 19 0
BBX 14 16 2 0
BITMAP
0440
0000
8004
8004
8004
8004
8004
8004
8004
8004
8004
8004
800C
8014
4064
3F84
ENDCHAR
STARTCHAR yacute
ENCODING 253
SWIDTH 911 0
DWIDTH 18 0
BBX 14 18 2 0
BITMAP
0080
01C0
0200
0000
8004
8004
8004
8004
8004
800C
4014
2064
1F84
0004
0004
0008
C030
3FC0
ENDCHAR
STARTCHAR thorn
ENCODING 254
SWIDTH 787 0
DWIDTH 16 0
BBX 12 14 2 0
BITMAP
8000
8000
FFC0
8020
8010
8010
8010
8010
8020
FFC0
8000
8000
8000
8000
ENDCHAR
STARTCHAR ydieresis
ENCODING 255
SWIDTH 911 0
DWIDTH 18 0
BBX 14 16 2 0
BITMAP
0440
0000
8004
8004
8004
8004
8004
800C
4014
2064
1F84
0004
0004
0008
C030
3FC0
ENDCHAR
STARTCHAR Amacron
ENCODING 256
SWIDTH 812 0
DWIDTH 16 0
BBX 15 16 1 0
BITMAP
07C0
0000
0100
0280
0280
0440
0440
0820
0820
1010
1010
3FF8
2008
4004
4004
8002
ENDCHAR
STARTCHAR amacron
ENCODING 257
SWIDTH 888 0
DWIDTH 18 0
BBX 14 16 1 0
BITMAP
07C0
0000
1FE0
6010
0008
0004
0004
00FC
0F04
3004
4004
8004
8004
800C
4034
3FC4
ENDCHAR
STARTCHAR Abreve
ENCODING 258
SWIDTH 812 0
DWIDTH 16 0
BBX 15 17 1 0
BITMAP
0860
07C0
0000
0100
0280
0280
0440
0440
0820
0820
1010
1010
3FF8
2008
4004
4004
8002
ENDCHAR
STARTCHAR abreve
ENCODING 259
SWIDTH 888 0
DWIDTH 18 0
BBX 14 17 1 0
BITMAP
0860
0780
0000
1FE0
6010
0008
0004
0004
00FC
0F04
3004
4004
8004
8004
800C
4034
3FC4
ENDCHAR
STARTCHAR Aogonek
ENCODING 260
SWIDTH 812 0
DWIDTH 16 0
BBX 16 17 1 -3
BITMAP
0100
0280
0280
0440
0440
0820
0820
1010
1010
3FF8
2008
4004
4004
8002
0004
0008
0007
ENDCHAR
STARTCHAR aogonek
ENCODING 261
SWIDTH 888 0
DWIDTH 18 0
BBX 15 17 1 -3
BITMAP
1FE0
6010
0008
0004
0004
00FC
0F04
3004
4004
8004
8004
800C
4034
3FC4
0008
0010
000E
ENDCHAR
STARTCHAR Cacute
ENCODING 262
SWIDTH 869 0
DWIDTH 17 0
BBX 15 18 1 0
BITMAP
0020
0060
0180
0000
07F0
180C
2002
4000
8000
8000
8000
8000
8000
8000
4000
2002
180C
07F0
ENDCHAR
STARTCHAR cacute
ENCODING 263
SWIDTH 869 0
DWIDTH 17 0
BBX 15 18 1 0
BITMAP
0020
0060
0180
0000
07F0
180C
2002
4000
8000
8000
8000
8000
8000
8000
4000
2002
180C
07F0
ENDCHAR
STARTCHAR Ccircumflex
ENCODING 264
SWIDTH 869 0
DWIDTH 17 0
BBX 15 18 1 0
BITMAP
0040
01B0
0608
0000
07F0
180C
2002
4000
8000
8000
8000
8000
8000
8000
4000
2002
180C
07F0
ENDCHAR
STARTCHAR ccircumflex
ENCODING 265
SWIDTH 869 0
DWIDTH 17 0
BBX 15 18 1 0
BITMAP
0040
01B0
0608
0000
07F0
180C
2002
4000
8000
8000
8000
8000
8000
8000
4000
2002
180C
07F0
ENDCHAR
STARTCHAR Cdotaccent
ENCODING 266
SWIDTH 869 0
DWIDTH 17 0
BBX 15 17 1 0
BITMAP
0080
0080
0000
07F0
180C
2002
4000
8000
8000
8000
8000
8000
8000
4000
2002
180C
07F0
ENDCHAR
STARTCHAR cdotaccent
ENCODING 267
SWIDTH 869 0
DWIDTH 17 0
BBX 15 17 1 0
BITMAP
0080
0080
0000
07F0
180C
2002
4000
8000
8000
8000
8000
8000
8000
4000
2002
180C
07F0
ENDCHAR
STARTCHAR Ccaron
ENCODING 268
SWIDTH 869 0
DWIDTH 17 0
BBX 15 18 1 0
BITMAP
0208
05B0
0040
0000
07F0
180C
2002
4000
8000
8000
8000
8000
8000
8000
4000
2002
180C
07F0
ENDCHAR
STARTCHAR ccaron
ENCODING 269
SWIDTH 869 0
DWIDTH 17 0
BBX 15 18 1 0
BITMAP
0208
05B0
0040
0000
07F0
180C
2002
4000
8000
8000
8000
8000
8000
8000
4000
2002
180C
07F0
ENDCHAR
STARTCHAR Dcaron
ENCODING 270
SWIDTH 910 0
DWIDTH 18 0
BBX 14 18 2 0
BITMAP
1040
2D80
0200
0000
FFC0
8030
8008
8008
8004
8004
8004
8004
8004
8004
8008
8008
8030
FFC0
ENDCHAR
STARTCHAR dcaron
ENCODING 271
SWIDTH 910 0
DWIDTH 18 0
BBX 14 18 2 0
BITMAP
1040
2D80
0200
0000
FFC0
8030
8008
8008
8004
8004
8004
8004
8004
8004
8008
8008
8030
FFC0
ENDCHAR
STARTCHAR Dcroat
ENCODING 272
SWIDTH 910 0
DWIDTH 18 0
BBX 16 14 0 0
BITMAP
3FF0
200C
2002
2002
2001
2001
FF01
2001
2001
2001
2002
2002
200C
3FF0
ENDCHAR
STARTCHAR dcroat
ENCODING 273
SWIDTH 910 0
DWIDTH 18 0
BBX 16 14 0 0
BITMAP
3FF0
200C
2002
2002
2001
2001
FF01
2001
2001
2001
2002
2002
200C
3FF0
ENDCHAR
STARTCHAR Emacron
ENCODING 274
SWIDTH 754 0
DWIDTH 15 0
BBX 11 16 2 0
BITMAP
1F00
0000
FFE0
8000
8000
8000
8000
8000
FFC0
8000
8000
8000
8000
8000
8000
FFE0
ENDCHAR
STARTCHAR emacron
ENCODING 275
SWIDTH 910 0
DWIDTH 18 0
BBX 15 16 1 0
BITMAP
07C0
0000
07E0
1818
2004
4004
8002
8002
FFFE
8000
8000
8000
4000
2000
1804
07F8
ENDCHAR
STARTCHAR Ebreve
ENCODING 276
SWIDTH 754 0
DWIDTH 15 0
BBX 11 17 2 0
BITMAP
3080
0F00
0000
FFE0
8000
8000
8000
8000
8000
FFC0
8000
8000
8000
8000
8000
8000
FFE0
ENDCHAR
STARTCHAR ebreve
ENCODING 277
SWIDTH 910 0
DWIDTH 18 0
BBX 15 17 1 0
BITMAP
0430
03E0
0000
07E0
1818
2004
4004
8002
8002
FFFE
8000
8000
8000
4000
2000
1804
07F8
ENDCHAR
STARTCHAR Edotaccent
ENCODING 278
SWIDTH 754 0
DWIDTH 15 0
BBX 11 17 2 0
BITMAP
0400
0400
0000
FFE0
8000
8000
8000
8000
8000
FFC0
8000
8000
8000
8000
8000
8000
FFE0
ENDCHAR
STARTCHAR edotaccent
ENCODING 279
SWIDTH 910 0
DWIDTH 18 0
BBX 15 17 1 0
BITMAP
0100
0100
0000
07E0
1818
2004
4004
8002
8002
FFFE
8000
8000
8000
4000
2000
1804
07F8
ENDCHAR
STARTCHAR Eogonek
ENCODING 280
SWIDTH 754 0
DWIDTH 15 0
BBX 11 17 2 -3
BITMAP
FFE0
8000
8000
8000
8000
8000
FFC0
8000
8000
8000
8000
8000
8000
FFE0
0080
0100
00E0
ENDCHAR
STARTCHAR eogonek
ENCODING 281
SWIDTH 910 0
DWIDTH 18 0
BBX 15 17 1 -3
BITMAP
07E0
1818
2004
4004
8002
8002
FFFE
8000
8000
8000
4000
2000
1804
07F8
0010
0010
000E
ENDCHAR
STARTCHAR Ecaron
ENCODING 282
SWIDTH 754 0
DWIDTH 15 0
BBX 11 18 2 0
BITMAP
1040
2D80
0200
0000
FFE0
8000
8000
8000
8000
8000
FFC0
8000
8000
8000
8000
8000
8000
FFE0
ENDCHAR
STARTCHAR ecaron
ENCODING 283
SWIDTH 910 0
DWIDTH 18 0
BBX 15 18 1 0
BITMAP
0810
0660
0180
0000
07E0
1818
2004
4004
8002
8002
FFFE
8000
8000
8000
4000
2000
1804
07F8
ENDCHAR
STARTCHAR Gcircumflex
ENCODING 284
SWIDTH 910 0
DWIDTH 18 0
BBX 15 18 1 0
BITMAP
0080
0360
0418
0000
07F0
180C
2002
4000
8000
8000
8000
80FE
8002
4002
4002
2002
1806
07F8
ENDCHAR
STARTCHAR gcircumflex
ENCODING 285
SWIDTH 910 0
DWIDTH 18 0
BBX 15 18 1 0
BITMAP
0080
0360
0418
0000
07F0
180C
2002
4000
8000
8000
8000
80FE
8002
4002
4002
2002
1806
07F8
ENDCHAR
STARTCHAR Gbreve
ENCODING 286
SWIDTH 910 0
DWIDTH 18 0
BBX 15 17 1 0
BITMAP
0430
03C0
0000
07F0
180C
2002
4000
8000
8000
8000
80FE
8002
4002
4002
2002
1806
07F8
ENDCHAR
STARTCHAR gbreve
ENCODING 287
SWIDTH 910 0
DWIDTH 18 0
BBX 15 17 1 0
BITMAP
0430
03C0
0000
07F0
180C
2002
4000
8000
8000
8000
80FE
8002
4002
4002
2002
1806
07F8
ENDCHAR
STARTCHAR Gdotaccent
ENCODING 288
SWIDTH 910 0
DWIDTH 18 0
BBX 15 17 1 0
BITMAP
0080
0080
0000
07F0
180C
2002
4000
8000
8000
8000
80FE
8002
4002
4002
2002
1806
07F8
ENDCHAR
STARTCHAR gdotaccent
ENCODING 289
SWIDTH 910 0
DWIDTH 18 0
BBX 15 17 1 0
BITMAP
0080
0080
0000
07F0
180C
2002
4000
8000
8000
8000
80FE
8002
4002
4002
2002
1806
07F8
ENDCHAR
STARTCHAR Gcommaaccent
ENCODING 290
SWIDTH 910 0
DWIDTH 18 0
BBX 15 18 1 -4
BITMAP
07F0
180C
2002
4000
8000
8000
8000
80FE
8002
4002
4002
2002
1806
07F8
0000
0080
0080
0100
ENDCHAR
STARTCHAR gcommaaccent
ENCODING 291
SWIDTH 910 0
DWIDTH 18 0
BBX 15 18 1 -4
BITMAP
07F0
180C
2002
4000
8000
8000
8000
80FE
8002
4002
4002
2002
1806
07F8
0000
0080
0080
0100
ENDCHAR
STARTCHAR Hcircumflex
ENCODING 292
SWIDTH 949 0
DWIDTH 19 0
BBX 14 18 2 0
BITMAP
0300
04C0
1820
0000
8004
8004
8004
8004
8004
8004
FFFC
8004
8004
8004
8004
8004
8004
8004
ENDCHAR
STARTCHAR hcircumflex
ENCODING 293
SWIDTH 949 0
DWIDTH 19 0
BBX 14 18 2 0
BITMAP
0300
04C0
1820
0000
8004
8004
8004
8004
8004
8004
FFFC
8004
8004
8004
8004
8004
8004
8004
ENDCHAR
STARTCHAR Hbar
ENCODING 294
SWIDTH 949 0
DWIDTH 19 0
BBX 18 14 0 0
BITMAP
200100
200100
200100
FFFFC0
200100
200100
3FFF00
200100
200100
200100
200100
200100
200100
200100
ENDCHAR
STARTCHAR hbar
ENCODING 295
SWIDTH 949 0
DWIDTH 19 0
BBX 18 14 0 0
BITMAP
200100
200100
200100
FFFFC0
200100
200100
3FFF00
200100
200100
200100
200100
200100
200100
200100
ENDCHAR
STARTCHAR Itilde
ENCODING 296
SWIDTH 287 0
DWIDTH 6 0
BBX 7 17 0 0
BITMAP
E6
9C
00
20
20
20
20
20
20
20
20
20
20
20
20
20
20
ENDCHAR
STARTCHAR itilde
ENCODING 297
SWIDTH 287 0
DWIDTH 6 0
BBX 7 17 0 0
BITMAP
E2
9C
00
20
20
20
20
20
20
20
20
20
20
20
20
20
20
ENDCHAR
STARTCHAR Imacron
ENCODING 298
SWIDTH 287 0
DWIDTH 6 0
BBX 5 16 0 0
BITMAP
F8
00
20
20
20
20
20
20
20
20
20
20
20
20
20
20
ENDCHAR
STARTCHAR imacron
ENCODING 299
SWIDTH 287 0
DWIDTH 6 0
BBX 5 16 0 0
BITMAP
F8
00
20
20
20
20
20
20
20
20
20
20
20
20
20
20
ENDCHAR
STARTCHAR Ibreve
ENCODING 300
SWIDTH 287 0
DWIDTH 6 0
BBX 7 17 0 0
BITMAP
86
78
00
20
20
20
20
20
20
20
20
20
20
20
20
20
20
ENDCHAR
STARTCHAR ibreve
ENCODING 301
SWIDTH 287 0
DWIDTH 6 0
BBX 7 17 0 0
BITMAP
86
78
00
20
20
20
20
20
20
20
20
20
20
20
20
20
20
ENDCHAR
STARTCHAR Iogonek
ENCODING 302
SWIDTH 287 0
DWIDTH 6 0
BBX 4 17 0 -3
BITMAP
20
20
20
20
20
20
20
20
20
20
20
20
20
20
40
80
70
ENDCHAR
STARTCHAR iogonek
ENCODING 303
SWIDTH 287 0
DWIDTH 6 0
BBX 4 17 0 -3
BITMAP
20
20
20
20
20
20
20
20
20
20
20
20
20
20
40
80
70
ENDCHAR
STARTCHAR Idotaccent
ENCODING 304
SWIDTH 287 0
DWIDTH 6 0
BBX 1 17 2 0
BITMAP
80
80
00
80
80
80
80
80
80
80
80
80
80
80
80
80
80
ENDCHAR
STARTCHAR dotlessi
ENCODING 305
SWIDTH 287 0
DWIDTH 6 0
BBX 1 14 2 0
BITMAP
80
80
80
80
80
80
80
80
80
80
80
80
80
80
ENDCHAR
STARTCHAR IJ
ENCODING 306
SWIDTH 877 0
DWIDTH 18 0
BBX 14 14 2 0
BITMAP
8004
8004
8004
8004
8004
8004
8004
8004
8004
8004
8004
8008
8810
87E0
ENDCHAR
STARTCHAR ij
ENCODING 307
SWIDTH 877 0
DWIDTH 18 0
BBX 14 14 2 0
BITMAP
8004
8004
8004
8004
8004
8004
8004
8004
8004
8004
8004
8008
8810
87E0
ENDCHAR
STARTCHAR Jcircumflex
ENCODING 308
SWIDTH 590 0
DWIDTH 12 0
BBX 14 18 0 0
BITMAP
0060
0190
020C
0000
0040
0040
0040
0040
0040
0040
0040
0040
0040
0040
0040
0080
8100
7E00
ENDCHAR
STARTCHAR jcircumflex
ENCODING 309
SWIDTH 590 0
DWIDTH 12 0
BBX 14 18 0 0
BITMAP
0060
0190
020C
0000
0040
0040
0040
0040
0040
0040
0040
0040
0040
0040
0040
0080
8100
7E00
ENDCHAR
STARTCHAR Kcommaaccent
ENCODING 310
SWIDTH 806 0
DWIDTH 16 0
BBX 13 18 2 -4
BITMAP
8038
8040
8180
8200
8C00
9000
E000
B000
8800
8600
8100
80C0
8020
8018
0000
0400
0400
0800
ENDCHAR
STARTCHAR kcommaaccent
ENCODING 311
SWIDTH 867 0
DWIDTH 17 0
BBX 14 18 2 -4
BITMAP
8008
8008
8010
8020
8040
8180
FE00
81C0
8020
8010
8008
8008
8004
8004
0000
0400
0400
0400
ENDCHAR
STARTCHAR kgreenlandic
ENCODING 312
SWIDTH 867 0
DWIDTH 17 0
BBX 14 14 2 0
BITMAP
8008
8008
8010
8020
8040
8180
FE00
81C0
8020
8010
8008
8008
8004
8004
ENDCHAR
STARTCHAR Lacute
ENCODING 313
SWIDTH 701 0
DWIDTH 14 0
BBX 11 18 2 0
BITMAP
2000
7000
8000
0000
8000
8000
8000
8000
8000
8000
8000
8000
8000
8000
8000
8000
8000
FFE0
ENDCHAR
STARTCHAR lacute
ENCODING 314
SWIDTH 709 0
DWIDTH 14 0
BBX 12 18 2 0
BITMAP
2000
7000
8000
0000
8000
8000
8000
8000
8000
8000
8000
8000
8000
8000
8000
8000
4000
3FF0
ENDCHAR
STARTCHAR Lcommaaccent
ENCODING 315
SWIDTH 701 0
DWIDTH 14 0
BBX 11 18 2 -4
BITMAP
8000
8000
8000
8000
8000
8000
8000
8000
8000
8000
8000
8000
8000
FFE0
0000
0400
0800
0800
ENDCHAR
STARTCHAR lcommaaccent
ENCODING 316
SWIDTH 709 0
DWIDTH 14 0
BBX 12 18 2 -4
BITMAP
8000
8000
8000
8000
8000
8000
8000
8000
8000
8000
8000
8000
4000
3FF0
0000
0400
0400
0400
ENDCHAR
STARTCHAR Lcaron
ENCODING 317
SWIDTH 701 0
DWIDTH 14 0
BBX 11 14 2 0
BITMAP
8080
8080
8100
8100
8000
8000
8000
8000
8000
8000
8000
8000
8000
FFE0
ENDCHAR
STARTCHAR lcaron
ENCODING 318
SWIDTH 709 0
DWIDTH 14 0
BBX 12 14 2 0
BITMAP
8080
8080
8100
8100
8000
8000
8000
8000
8000
8000
8000
8000
4000
3FF0
ENDCHAR
STARTCHAR Ldot
ENCODING 319
SWIDTH 701 0
DWIDTH 14 0
BBX 11 14 2 0
BITMAP
8000
8000
8000
8000
8000
8000
8180
8180
8000
8000
8000
8000
8000
FFE0
ENDCHAR
STARTCHAR ldotaccent
ENCODING 320
SWIDTH 709 0
DWIDTH 14 0
BBX 12 14 2 0
BITMAP
8000
8000
8000
8000
8000
8000
8180
8180
8000
8000
8000
8000
4000
3FF0
ENDCHAR
STARTCHAR Lslash
ENCODING 321
SWIDTH 701 0
DWIDTH 14 0
BBX 13 14 0 0
BITMAP
2000
2000
2000
2000
2000
2000
2600
3800
E000
2000
2000
2000
2000
3FF8
ENDCHAR
STARTCHAR lslash
ENCODING 322
SWIDTH 709 0
DWIDTH 14 0
BBX 14 14 0 0
BITMAP
2000
2000
2000
2000
2000
2000
2600
3800
E000
2000
2000
2000
1000
0FFC
ENDCHAR
STARTCHAR Nacute
ENCODING 323
SWIDTH 936 0
DWIDTH 19 0
BBX 14 18 2 0
BITMAP
0040
0180
0200
0000
8004
C004
A004
9004
8804
8404
8204
8104
8084
8044
8024
8014
800C
8004
ENDCHAR
STARTCHAR nacute
ENCODING 324
SWIDTH 933 0
DWIDTH 19 0
BBX 14 18 2 0
BITMAP
0040
0180
0200
0000
83E0
9C18
A004
C004
8004
8004
8004
8004
8004
8004
8004
8004
8004
8004
ENDCHAR
STARTCHAR Ncommaaccent
ENCODING 325
SWIDTH 936 0
DWIDTH 19 0
BBX 14 18 2 -4
BITMAP
8004
C004
A004
9004
8804
8404
8204
8104
8084
8044
8024
8014
800C
8004
0000
0200
0200
0200
ENDCHAR
STARTCHAR ncommaaccent
ENCODING 326
SWIDTH 933 0
DWIDTH 19 0
BBX 14 18 2 -4
BITMAP
83E0
9C18
A004
C004
8004
8004
8004
8004
8004
8004
8004
8004
8004
8004
0000
0200
0200
0200
ENDCHAR
STARTCHAR Ncaron
ENCODING 327
SWIDTH 936 0
DWIDTH 19 0
BBX 14 18 2 0
BITMAP
0810
0660
0180
0000
8004
C004
A004
9004
8804
8404
8204
8104
8084
8044
8024
8014
800C
8004
ENDCHAR
STARTCHAR ncaron
ENCODING 328
SWIDTH 933 0
DWIDTH 19 0
BBX 14 18 2 0
BITMAP
0810
0660
0180
0000
83E0
9C18
A004
C004
8004
8004
8004
8004
8004
8004
8004
8004
8004
8004
ENDCHAR
STARTCHAR napostrophe
ENCODING 329
SWIDTH 1025 0
DWIDTH 21 0
BBX 18 14 0 0
BITMAP
487E00
49C180
4A0080
8C0040
080040
080040
080040
080040
080040
080040
080040
080040
080040
080040
ENDCHAR
STARTCHAR Eng
ENCODING 330
SWIDTH 936 0
DWIDTH 19 0
BBX 14 14 2 0
BITMAP
C004
A004
9004
8804
8604
8104
8084
8044
8034
800C
8004
800C
8408
83F0
ENDCHAR
STARTCHAR eng
ENCODING 331
SWIDTH 933 0
DWIDTH 19 0
BBX 14 14 2 0
BITMAP
87E0
9818
A004
C004
8004
8004
8004
8004
8004
8004
8004
8004
8408
83F0
ENDCHAR
STARTCHAR Omacron
ENCODING 332
SWIDTH 983 0
DWIDTH 20 0
BBX 17 16 1 0
BITMAP
01F000
000000
07F000
180C00
200200
400100
800080
800080
800080
800080
800080
800080
400100
200200
180C00
07F000
ENDCHAR
STARTCHAR omacron
ENCODING 333
SWIDTH 983 0
DWIDTH 20 0
BBX 17 16 1 0
BITMAP
01F000
000000
07F000
180C00
200200
400100
800080
800080
800080
800080
800080
800080
400100
200200
180C00
07F000
ENDCHAR
STARTCHAR Obreve
ENCODING 334
SWIDTH 983 0
DWIDTH 20 0
BBX 17 17 1 0
BITMAP
021800
01E000
000000
07F000
180C00
200200
400100
800080
800080
800080
800080
800080
800080
400100
200200
180C00
07F000
ENDCHAR
STARTCHAR obreve
ENCODING 335
SWIDTH 983 0
DWIDTH 20 0
BBX 17 17 1 0
BITMAP
021800
01E000
000000
07F000
180C00
200200
400100
800080
800080
800080
800080
800080
800080
400100
200200
180C00
07F000
ENDCHAR
STARTCHAR Ohungarumlaut
ENCODING 336
SWIDTH 983 0
DWIDTH 20 0
BBX 17 18 1 0
BITMAP
004800
009000
012000
000000
07F000
180C00
200200
400100
800080
800080
800080
800080
800080
800080
400100
200200
180C00
07F000
ENDCHAR
STARTCHAR ohungarumlaut
ENCODING 337
SWIDTH 983 0
DWIDTH 20 0
BBX 17 18 1 0
BITMAP
004800
009000
012000
000000
07F000
180C00
200200
400100
800080
800080
800080
800080
800080
800080
400100
200200
180C00
07F000
ENDCHAR
STARTCHAR OE
ENCODING 338
SWIDTH 1338 0
DWIDTH 27 0
BBX 24 14 1 0
BITMAP
07FFFF
180400
200400
400400
800400
800400
8007FE
800400
800400
800400
400400
200400
180400
07FFFF
ENDCHAR
STARTCHAR oe
ENCODING 339
SWIDTH 1688 0
DWIDTH 34 0
BBX 31 14 1 0
BITMAP
07F007E0
180C1818
20022004
40014004
80008002
80008002
8000FFFE
80008000
80008000
8000C000
40014000
20022000
180C1804
07F007F8
ENDCHAR
STARTCHAR Racute
ENCODING 340
SWIDTH 833 0
DWIDTH 17 0
BBX 13 18 2 0
BITMAP
0100
0700
0C00
0000
FFC0
8020
8010
8010
8010
8010
8020
FFC0
8080
8040
8020
8020
8010
8008
ENDCHAR
STARTCHAR racute
ENCODING 341
SWIDTH 609 0
DWIDTH 12 0
BBX 10 18 2 0
BITMAP
0200
0600
1800
0000
87C0
9800
A000
C000
8000
8000
8000
8000
8000
8000
8000
8000
8000
8000
ENDCHAR
STARTCHAR Rcommaaccent
ENCODING 342
SWIDTH 833 0
DWIDTH 17 0
BBX 13 18 2 -4
BITMAP
FFC0
8020
8010
8010
8010
8010
8020
FFC0
8080
8040
8020
8020
8010
8008
0000
0400
0400
0400
ENDCHAR
STARTCHAR rcommaaccent
ENCODING 343
SWIDTH 609 0
DWIDTH 12 0
BBX 10 18 2 -4
BITMAP
87C0
9800
A000
C000
8000
8000
8000
8000
8000
8000
8000
8000
8000
8000
0000
8000
8000
8000
ENDCHAR
STARTCHAR Rcaron
ENCODING 344
SWIDTH 833 0
DWIDTH 17 0
BBX 13 18 2 0
BITMAP
3040
0980
0600
0000
FFC0
8020
8010
8010
8010
8010
8020
FFC0
8080
8040
8020
8020
8010
8008
ENDCHAR
STARTCHAR rcaron
ENCODING 345
SWIDTH 609 0
DWIDTH 12 0
BBX 10 18 2 0
BITMAP
2080
5B00
0400
0000
87C0
9800
A000
C000
8000
8000
8000
8000
8000
8000
8000
8000
8000
8000
ENDCHAR
STARTCHAR Sacute
ENCODING 346
SWIDTH 787 0
DWIDTH 16 0
BBX 12 18 2 0
BITMAP
0100
0300
0C00
0000
3F80
4060
8000
8000
8000
6000
1E00
01C0
0020
0010
0010
0010
8060
7F80
ENDCHAR
STARTCHAR sacute
ENCODING 347
SWIDTH 787 0
DWIDTH 16 0
BBX 12 18 2 0
BITMAP
0100
0300
0C00
0000
3F80
4060
8000
8000
8000
6000
1E00
01C0
0020
0010
0010
0010
8060
7F80
ENDCHAR
STARTCHAR Scircumflex
ENCODING 348
SWIDTH 787 0
DWIDTH 16 0
BBX 12 18 2 0
BITMAP
0200
0D80
3040
0000
3F80
4060
8000
8000
8000
6000
1E00
01C0
0020
0010
0010
0010
8060
7F80
ENDCHAR
STARTCHAR scircumflex
ENCODING 349
SWIDTH 787 0
DWIDTH 16 0
BBX 12 18 2 0
BITMAP
0200
0D80
3040
0000
3F80
4060
8000
8000
8000
6000
1E00
01C0
0020
0010
0010
0010
8060
7F80
ENDCHAR
STARTCHAR Scedilla
ENCODING 350
SWIDTH 787 0
DWIDTH 16 0
BBX 12 18 2 -4
BITMAP
3F80
4060
8000
8000
8000
6000
1E00
01C0
0020
0010
0010
0010
8060
7F80
0400
0600
0100
0E00
ENDCHAR
STARTCHAR scedilla
ENCODING 351
SWIDTH 787 0
DWIDTH 16 0
BBX 12 18 2 -4
BITMAP
3F80
4060
8000
8000
8000
6000
1E00
01C0
0020
0010
0010
0010
8060
7F80
0400
0600
0100
0E00
ENDCHAR
STARTCHAR Scaron
ENCODING 352
SWIDTH 787 0
DWIDTH 16 0
BBX 12 18 2 0
BITMAP
1040
2D80
0200
0000
3F80
4060
8000
8000
8000
6000
1E00
01C0
0020
0010
0010
0010
8060
7F80
ENDCHAR
STARTCHAR scaron
ENCODING 353
SWIDTH 787 0
DWIDTH 16 0
BBX 12 18 2 0
BITMAP
1040
2D80
0200
0000
3F80
4060
8000
8000
8000
6000
1E00
01C0
0020
0010
0010
0010
8060
7F80
ENDCHAR
STARTCHAR Tcommaaccent
ENCODING 354
SWIDTH 708 0
DWIDTH 14 0
BBX 13 18 1 -4
BITMAP
FFF8
0200
0200
0200
0200
0200
0200
0200
0200
0200
0200
0200
0200
0200
0000
0200
0200
0400
ENDCHAR
STARTCHAR tcommaaccent
ENCODING 355
SWIDTH 708 0
DWIDTH 14 0
BBX 13 18 1 -4
BITMAP
FFF8
0200
0200
0200
0200
0200
0200
0200
0200
0200
0200
0200
0200
0200
0000
0200
0200
0400
ENDCHAR
STARTCHAR Tcaron
ENCODING 356
SWIDTH 708 0
DWIDTH 14 0
BBX 13 18 1 0
BITMAP
1060
0C80
0300
0000
FFF8
0200
0200
0200
0200
0200
0200
0200
0200
0200
0200
0200
0200
0200
ENDCHAR
STARTCHAR tcaron
ENCODING 357
SWIDTH 708 0
DWIDTH 14 0
BBX 13 18 1 0
BITMAP
1060
0C80
0300
0000
FFF8
0200
0200
0200
0200
0200
0200
0200
0200
0200
0200
0200
0200
0200
ENDCHAR
STARTCHAR Tbar
ENCODING 358
SWIDTH 708 0
DWIDTH 14 0
BBX 13 14 1 0
BITMAP
FFF8
0200
0200
0200
0200
7FF0
0200
0200
0200
0200
0200
0200
0200
0200
ENDCHAR
STARTCHAR tbar
ENCODING 359
SWIDTH 708 0
DWIDTH 14 0
BBX 13 14 1 0
BITMAP
FFF8
0200
0200
0200
0200
7FF0
0200
0200
0200
0200
0200
0200
0200
0200
ENDCHAR
STARTCHAR Utilde
ENCODING 360
SWIDTH 891 0
DWIDTH 18 0
BBX 14 17 2 0
BITMAP
0E20
09C0
0000
8004
8004
8004
8004
8004
8004
8004
8004
8004
8004
8004
4008
2010
1FE0
ENDCHAR
STARTCHAR utilde
ENCODING 361
SWIDTH 931 0
DWIDTH 19 0
BBX 14 17 2 0
BITMAP
0720
08C0
0000
8004
8004
8004
8004
8004
8004
8004
8004
8004
8004
800C
8014
4064
3F84
ENDCHAR
STARTCHAR Umacron
ENCODING 362
SWIDTH 891 0
DWIDTH 18 0
BBX 14 16 2 0
BITMAP
07C0
0000
8004
8004
8004
8004
8004
8004
8004
8004
8004
8004
8004
4008
2010
1FE0
ENDCHAR
STARTCHAR umacron
ENCODING 363
SWIDTH 931 0
DWIDTH 19 0
BBX 14 16 2 0
BITMAP
07C0
0000
8004
8004
8004
8004
8004
8004
8004
8004
8004
8004
800C
8014
4064
3F84
ENDCHAR
STARTCHAR Ubreve
ENCODING 364
SWIDTH 891 0
DWIDTH 18 0
BBX 14 17 2 0
BITMAP
0860
0780
0000
8004
8004
8004
8004
8004
8004
8004
8004
8004
8004
8004
4008
2010
1FE0
ENDCHAR
STARTCHAR ubreve
ENCODING 365
SWIDTH 931 0
DWIDTH 19 0
BBX 14 17 2 0
BITMAP
0820
07C0
0000
8004
8004
8004
8004
8004
8004
8004
8004
8004
8004
800C
8014
4064
3F84
ENDCHAR
STARTCHAR Uring
ENCODING 366
SWIDTH 891 0
DWIDTH 18 0
BBX 14 19 2 0
BITMAP
0380
0440
0440
0380
0000
8004
8004
8004
8004
8004
8004
8004
8004
8004
8004
8004
4008
2010
1FE0
ENDCHAR
STARTCHAR uring
ENCODING 367
SWIDTH 931 0
DWIDTH 19 0
BBX 14 19 2 0
BITMAP
0380
0440
0440
0380
0000
8004
8004
8004
8004
8004
8004
8004
8004
8004
8004
800C
8014
4064
3F84
ENDCHAR
STARTCHAR Uhungarumlaut
ENCODING 368
SWIDTH 891 0
DWIDTH 18 0
BBX 14 18 2 0
BITMAP
0120
0240
0480
0000
8004
8004
8004
8004
8004
8004
8004
8004
8004
8004
8004
4008
2010
1FE0
ENDCHAR
STARTCHAR uhungarumlaut
ENCODING 369
SWIDTH 931 0
DWIDTH 19 0
BBX 14 18 2 0
BITMAP
0120
0240
0480
0000
8004
8004
8004
8004
8004
8004
8004
8004
8004
8004
800C
8014
4064
3F84
ENDCHAR
STARTCHAR Uogonek
ENCODING 370
SWIDTH 891 0
DWIDTH 18 0
BBX 14 17 2 -3
BITMAP
8004
8004
8004
8004
8004
8004
8004
8004
8004
8004
8004
4008
2010
1FE0
0200
0400
0380
ENDCHAR
STARTCHAR uogonek
ENCODING 371
SWIDTH 931 0
DWIDTH 19 0
BBX 15 17 2 -3
BITMAP
8004
8004
8004
8004
8004
8004
8004
8004
8004
8004
800C
8014
6064
1F84
0008
0010
000E
ENDCHAR
STARTCHAR Wcircumflex
ENCODING 372
SWIDTH 1266 0
DWIDTH 25 0
BBX 23 18 1 0
BITMAP
001800
002600
00C100
000000
801002
802802
402804
406C04
404404
204408
208208
308218
110110
110110
090120
0A00A0
0A00A0
040040
ENDCHAR
STARTCHAR wcircumflex
ENCODING 373
SWIDTH 1266 0
DWIDTH 25 0
BBX 23 18 1 0
BITMAP
001800
002600
00C100
000000
801002
802802
402804
406C04
404404
204408
208208
308218
110110
110110
090120
0A00A0
0A00A0
040040
ENDCHAR
STARTCHAR Ycircumflex
ENCODING 374
SWIDTH 763 0
DWIDTH 15 0
BBX 13 18 1 0
BITMAP
0300
04C0
1820
0000
8008
4010
2020
3060
1040
0880
0500
0200
0200
0200
0200
0200
0200
0200
ENDCHAR
STARTCHAR ycircumflex
ENCODING 375
SWIDTH 911 0
DWIDTH 18 0
BBX 14 18 2 0
BITMAP
0200
0D80
1060
0000
8004
8004
8004
8004
8004
800C
4014
2064
1F84
0004
0004
0008
C030
3FC0
ENDCHAR
STARTCHAR Ydieresis
ENCODING 376
SWIDTH 763 0
DWIDTH 15 0
BBX 13 16 1 0
BITMAP
0880
0000
8008
4010
2020
3060
1040
0880
0500
0200
0200
0200
0200
0200
0200
0200
ENDCHAR
STARTCHAR Zacute
ENCODING 377
SWIDTH 728 0
DWIDTH 15 0
BBX 12 18 1 0
BITMAP
0080
0300
0400
0000
FFF0
0020
0040
0080
0180
0100
0200
0400
0800
1000
2000
6000
4000
FFF0
ENDCHAR
STARTCHAR zacute
ENCODING 378
SWIDTH 728 0
DWIDTH 15 0
BBX 12 18 1 0
BITMAP
0080
0300
0400
0000
FFF0
0020
0040
0080
0180
0100
0200
0400
0800
1000
2000
6000
4000
FFF0
ENDCHAR
STARTCHAR Zdotaccent
ENCODING 379
SWIDTH 728 0
DWIDTH 15 0
BBX 12 17 1 0
BITMAP
0200
0200
0000
FFF0
0020
0040
0080
0180
0100
0200
0400
0800
1000
2000
6000
4000
FFF0
ENDCHAR
STARTCHAR zdotaccent
ENCODING 380
SWIDTH 728 0
DWIDTH 15 0
BBX 12 17 1 0
BITMAP
0200
0200
0000
FFF0
0020
0040
0080
0180
0100
0200
0400
0800
1000
2000
6000
4000
FFF0
ENDCHAR
STARTCHAR Zcaron
ENCODING 381
SWIDTH 728 0
DWIDTH 15 0
BBX 12 18 1 0
BITMAP
2040
1980
0600
0000
FFF0
0020
0040
0080
0180
0100
0200
0400
0800
1000
2000
6000
4000
FFF0
ENDCHAR
STARTCHAR zcaron
ENCODING 382
SWIDTH 728 0
DWIDTH 15 0
BBX 12 18 1 0
BITMAP
1020
0CC0
0300
0000
FFF0
0020
0040
0080
0180
0100
0200
0400
0800
1000
2000
6000
4000
FFF0
ENDCHAR
STARTCHAR florin
ENCODING 402
SWIDTH 835 0
DWIDTH 17 0
BBX 16 15 0 -1
BITMAP
001E
0061
0040
0040
0080
07F0
0080
0080
0100
0100
0100
0200
0200
8400
7800
ENDCHAR
STARTCHAR AEacute
ENCODING 508
SWIDTH 1172 0
DWIDTH 23 0
BBX 21 18 1 0
BITMAP
000100
000380
000C00
000000
00FFF8
00A000
012000
022000
022000
042000
043FF0
082000
102000
1FE000
202000
402000
402000
803FF8
ENDCHAR
STARTCHAR aeacute
ENCODING 509
SWIDTH 1551 0
DWIDTH 31 0
BBX 28 18 1 0
BITMAP
00008000
00018000
00060000
00000000
1FE03F00
6010C0C0
00090020
00060020
00040010
00FC0010
1F07FFF0
20040000
40040000
80040000
80020000
800D0000
6070C020
3F803FC0
ENDCHAR
STARTCHAR Oslashacute
ENCODING 510
SWIDTH 983 0
DWIDTH 20 0
BBX 17 20 1 -2
BITMAP
002000
007000
008200
000400
07F800
180C00
201200
402100
802080
804080
808080
808080
810080
820080
420100
240200
180C00
0FF000
100000
200000
ENDCHAR
STARTCHAR oslashacute
ENCODING 511
SWIDTH 983 0
DWIDTH 20 0
BBX 17 20 1 -2
BITMAP
002000
007000
008200
000400
07F800
180C00
201200
402100
802080
804080
808080
808080
810080
820080
420100
240200
180C00
0FF000
100000
200000
ENDCHAR
STARTCHAR dotlessj
ENCODING 567
SWIDTH 590 0
DWIDTH 12 0
BBX 10 14 0 0
BITMAP
0040
0040
0040
0040
0040
0040
0040
0040
0040
0040
0040
0080
8100
7E00
ENDCHAR
STARTCHAR circumflex
ENCODING 710
SWIDTH 527 0
DWIDTH 11 0
BBX 8 3 2 11
BITMAP
18
66
81
ENDCHAR
STARTCHAR caron
ENCODING 711
SWIDTH 527 0
DWIDTH 11 0
BBX 8 3 2 11
BITMAP
81
66
18
ENDCHAR
STARTCHAR breve
ENCODING 728
SWIDTH 527 0
DWIDTH 11 0
BBX 7 2 2 11
BITMAP
82
7C
ENDCHAR
STARTCHAR dotaccent
ENCODING 729
SWIDTH 527 0
DWIDTH 11 0
BBX 1 2 5 11
BITMAP
80
80
ENDCHAR
STARTCHAR ring
ENCODING 730
SWIDTH 527 0
DWIDTH 11 0
BBX 5 4 3 11
BITMAP
70
88
88
70
ENDCHAR
STARTCHAR ogonek
ENCODING 731
SWIDTH 527 0
DWIDTH 11 0
BBX 4 3 3 -3
BITMAP
60
80
70
ENDCHAR
STARTCHAR tilde
ENCODING 732
SWIDTH 527 0
DWIDTH 11 0
BBX 7 2 2 11
BITMAP
72
8C
ENDCHAR
STARTCHAR hungarumlaut
ENCODING 733
SWIDTH 527 0
DWIDTH 11 0
BBX 6 3 3 11
BITMAP
24
48
90
ENDCHAR
STARTCHAR commaaccent
ENCODING 806
SWIDTH 527 0
DWIDTH 11 0
BBX 1 3 4 -4
BITMAP
80
80
80
ENDCHAR
STARTCHAR mu
ENCODING 956
SWIDTH 705 0
DWIDTH 14 0
BBX 12 13 0 -4
BITMAP
1010
1010
2020
2020
2020
2020
2060
51A0
4E20
4000
4000
4000
8000
ENDCHAR
STARTCHAR Wgrave
ENCODING 7808
SWIDTH 1266 0
DWIDTH 25 0
BBX 23 18 1 0
BITMAP
004000
00E000
001000
000000
801002
802802
402804
406C04
404404
204408
208208
308218
110110
110110
090120
0A00A0
0A00A0
040040
ENDCHAR
STARTCHAR wgrave
ENCODING 7809
SWIDTH 1266 0
DWIDTH 25 0
BBX 23 18 1 0
BITMAP
004000
00E000
001000
000000
801002
802802
402804
406C04
404404
204408
208208
308218
110110
110110
090120
0A00A0
0A00A0
040040
ENDCHAR
STARTCHAR Wacute
ENCODING 7810
SWIDTH 1266 0
DWIDTH 25 0
BBX 23 18 1 0
BITMAP
000400
000C00
003000
000000
801002
802802
402804
406C04
404404
204408
208208
308218
110110
110110
090120
0A00A0
0A00A0
040040
ENDCHAR
STARTCHAR wacute
ENCODING 7811
SWIDTH 1266 0
DWIDTH 25 0
BBX 23 18 1 0
BITMAP
000400
000C00
003000
000000
801002
802802
402804
406C04
404404
204408
208208
308218
110110
110110
090120
0A00A0
0A00A0
040040
ENDCHAR
STARTCHAR Wdieresis
ENCODING 7812
SWIDTH 1266 0
DWIDTH 25 0
BBX 23 16 1 0
BITMAP
004400
000000
801002
802802
402804
406C04
404404
204408
208208
308218
110110
110110
090120
0A00A0
0A00A0
040040
ENDCHAR
STARTCHAR wdieresis
ENCODING 7813
SWIDTH 1266 0
DWIDTH 25 0
BBX 23 16 1 0
BITMAP
004400
000000
801002
802802
402804
406C04
404404
204408
208208
308218
110110
110110
090120
0A00A0
0A00A0
040040
ENDCHAR
STARTCHAR Ygrave
ENCODING 7922
SWIDTH 763 0
DWIDTH 15 0
BBX 13 18 1 0
BITMAP
0800
1C00
0200
0000
8008
4010
2020
3060
1040
0880
0500
0200
0200
0200
0200
0200
0200
0200
ENDCHAR
STARTCHAR ygrave
ENCODING 7923
SWIDTH 911 0
DWIDTH 18 0
BBX 14 18 2 0
BITMAP
0800
0C00
0300
0000
8004
8004
8004
8004
8004
800C
4014
2064
1F84
0004
0004
0008
C030
3FC0
ENDCHAR
STARTCHAR endash
ENCODING 8211
SWIDTH 419 0
DWIDTH 8 0
BBX 8 1 0 6
BITMAP
FF
ENDCHAR
STARTCHAR emdash
ENCODING 8212
SWIDTH 1000 0
DWIDTH 20 0
BBX 20 1 0 6
BITMAP
FFFFF0
ENDCHAR
STARTCHAR quoteleft
ENCODING 8216
SWIDTH 163 0
DWIDTH 3 0
BBX 2 4 1 10
BITMAP
40
40
80
80
ENDCHAR
STARTCHAR quoteright
ENCODING 8217
SWIDTH 163 0
DWIDTH 3 0
BBX 2 4 1 10
BITMAP
40
40
80
80
ENDCHAR
STARTCHAR quotesinglbase
ENCODING 8218
SWIDTH 163 0
DWIDTH 3 0
BBX 2 4 1 -2
BITMAP
40
40
80
80
ENDCHAR
STARTCHAR quotedblleft
ENCODING 8220
SWIDTH 303 0
DWIDTH 6 0
BBX 5 4 1 10
BITMAP
48
48
90
90
ENDCHAR
STARTCHAR quotedblright
ENCODING 8221
SWIDTH 303 0
DWIDTH 6 0
BBX 5 4 1 10
BITMAP
48
48
90
90
ENDCHAR
STARTCHAR quotedblbase
ENCODING 8222
SWIDTH 303 0
DWIDTH 6 0
BBX 5 4 1 -2
BITMAP
48
48
90
90
ENDCHAR
STARTCHAR dagger
ENCODING 8224
SWIDTH 500 0
DWIDTH 10 0
BBX 7 14 1 0
BITMAP
10
10
10
10
FE
10
10
10
10
10
10
10
10
10
ENDCHAR
STARTCHAR daggerdbl
ENCODING 8225
SWIDTH 500 0
DWIDTH 10 0
BBX 7 14 1 0
BITMAP
10
10
10
10
FE
10
10
10
FE
10
10
10
10
10
ENDCHAR
STARTCHAR bullet
ENCODING 8226
SWIDTH 352 0
DWIDTH 7 0
BBX 4 4 2 5
BITMAP
60
F0
F0
60
ENDCHAR
STARTCHAR ellipsis
ENCODING 8230
SWIDTH 555 0
DWIDTH 11 0
BBX 9 2 1 0
BITMAP
8880
8880
ENDCHAR
STARTCHAR perthousand
ENCODING 8240
SWIDTH 1401 0
DWIDTH 28 0
BBX 26 14 1 0
BITMAP
3C020000
42040000
81080000
81100000
81200000
42200000
3C400000
009E0F00
01211080
0140A040
0240A040
0440A040
08211080
101E0F00
ENDCHAR
STARTCHAR guilsinglleft
ENCODING 8249
SWIDTH 257 0
DWIDTH 5 0
BBX 4 7 1 3
BITMAP
10
20
40
80
40
20
10
ENDCHAR
STARTCHAR guilsinglright
ENCODING 8250
SWIDTH 257 0
DWIDTH 5 0
BBX 4 7 0 3
BITMAP
80
40
20
10
20
40
80
ENDCHAR
STARTCHAR fraction
ENCODING 8260
SWIDTH 200 0
DWIDTH 4 0
BBX 12 14 -4 0
BITMAP
0010
0020
0040
0080
0100
0100
0200
0400
0800
0800
1000
2000
4000
8000
ENDCHAR
STARTCHAR Euro
ENCODING 8364
SWIDTH 833 0
DWIDTH 17 0
BBX 14 14 1 0
BITMAP
03F0
0408
0804
1000
2000
FFE0
2000
2000
FFC0
2000
1000
0804
0408
03F0
ENDCHAR
STARTCHAR trademark
ENCODING 8482
SWIDTH 773 0
DWIDTH 15 0
BBX 13 6 1 8
BITMAP
FA08
2318
2328
22A8
22C8
2248
ENDCHAR
STARTCHAR partialdiff
ENCODING 8706
SWIDTH 790 0
DWIDTH 16 0
BBX 13 14 1 0
BITMAP
0FC0
1020
0010
0008
0008
1F88
2068
4018
8008
8010
8010
8020
60C0
1F00
ENDCHAR
STARTCHAR minus
ENCODING 8722
SWIDTH 634 0
DWIDTH 13 0
BBX 9 1 2 6
BITMAP
FF80
ENDCHAR
STARTCHAR uni2215
ENCODING 8725
SWIDTH 200 0
DWIDTH 4 0
BBX 12 14 -4 0
BITMAP
0010
0020
0040
0080
0100
0100
0200
0400
0800
0800
1000
2000
4000
8000
ENDCHAR
STARTCHAR approxequal
ENCODING 8776
SWIDTH 634 0
DWIDTH 13 0
BBX 10 5 2 4
BITMAP
7840
8780
0000
7840
8780
ENDCHAR
STARTCHAR notequal
ENCODING 8800
SWIDTH 634 0
DWIDTH 13 0
BBX 9 11 2 1
BITMAP
0200
0400
0400
FF80
0800
0800
0800
FF80
1000
1000
2000
ENDCHAR
STARTCHAR lessequal
ENCODING 8804
SWIDTH 634 0
DWIDTH 13 0
BBX 10 11 2 1
BITMAP
0040
0380
0C00
7000
8000
7000
0C00
0380
0040
0000
FFC0
ENDCHAR
STARTCHAR greaterequal
ENCODING 8805
SWIDTH 634 0
DWIDTH 13 0
BBX 10 11 2 1
BITMAP
8000
7000
0C00
0380
0040
0380
0C00
7000
8000
0000
FFC0
ENDCHAR
STARTCHAR fi
ENCODING 64257
SWIDTH 1104 0
DWIDTH 22 0
BBX 17 14 2 0
BITMAP
1FF880
600080
800080
800080
800080
800080
FFF880
800080
800080
800080
800080
800080
800080
800080
ENDCHAR
STARTCHAR fl
ENCODING 64258
SWIDTH 1527 0
DWIDTH 31 0
BBX 28 14 2 0
BITMAP
1FF88000
60008000
80008000
80008000
80008000
80008000
FFF88000
80008000
80008000
80008000
80008000
80004000
80006000
80003FF0
ENDCHAR
STARTCHAR .notdef
ENCODING -1
SWIDTH 1000 0
DWIDTH 20 0
BBX 1 1 0 0
BITMAP
00
ENDCHAR
ENDFONT
